{
  "accessors": [
    {
      "bufferView": 2,
      "componentType": 5126,
      "count": 8,
      "max": [
        0.6530640125274658,
        0.21047000586986542,
        0.3024289906024933
      ],
      "min": [
        -0.4276689887046814,
        -0.32836100459098816,
        -0.18375100195407867
      ],
      "type": "VEC3"
    },
    {
      "bufferView": 2,
      "byteOffset": 96,
      "componentType": 5126,
      "count": 8,
      "max": [
        -0.0005915937363170087,
        0.9999897480010986,
        0.9999926686286926
      ],
      "min": [
        -0.0024452393408864737,
        0.003790868679061532,
        -0.0038135789800435305
      ],
      "type": "VEC3"
    },
    {
      "bufferView": 3,
      "componentType": 5126,
      "count": 8,
      "max": [
        1.0,
        5.6757698985165916e-08,
        0.0005966700264252722,
        1.0
      ],
      "min": [
        -0.9999970197677612,
        -0.002447499893605709,
        -0.0005889669992029667,
        1.0
      ],
      "type": "VEC4"
    },
    {
      "bufferView": 1,
      "componentType": 5126,
      "count": 8,
      "max": [
        7.195429801940918,
        2.998070001602173
      ],
      "min": [
        -1.8807199353432225e-07,
        -0.0007382560288533568
      ],
      "type": "VEC2"
    },
    {
      "bufferView": 1,
      "byteOffset": 64,
      "componentType": 5126,
      "count": 8,
      "max": [
        0.9298530220985413,
        3.589750051498413
      ],
      "min": [
        -2.814189910888672,
        1.2847800254821777
      ],
      "type": "VEC2"
    },
    {
      "bufferView": 0,
      "componentType": 5125,
      "count": 12,
      "type": "SCALAR"
    },
    {
      "bufferView": 2,
      "byteOffset": 192,
      "componentType": 5126,
      "count": 1473,
      "max": [
        0.6767539978027344,
        0.444691002368927,
        0.3574489951133728
      ],
      "min": [
        -0.6133430004119873,
        -0.444691002368927,
        -0.2408600002527237
      ],
      "type": "VEC3"
    },
    {
      "bufferView": 2,
      "byteOffset": 17868,
      "componentType": 5126,
      "count": 1473,
      "max": [
        0.9999987483024597,
        0.9999923706054688,
        0.9999998807907104
      ],
      "min": [
        -0.9999989867210388,
        -0.9999930262565613,
        -0.9999929070472717
      ],
      "type": "VEC3"
    },
    {
      "bufferView": 3,
      "byteOffset": 128,
      "componentType": 5126,
      "count": 1473,
      "max": [
        0.9999970197677612,
        0.9999989867210388,
        1.0,
        1.0
      ],
      "min": [
        -1.0,
        -0.9999899864196777,
        -1.0,
        -1.0
      ],
      "type": "VEC4"
    },
    {
      "bufferView": 1,
      "byteOffset": 128,
      "componentType": 5126,
      "count": 1473,
      "max": [
        2.9094300270080566,
        0.9968140125274658
      ],
      "min": [
        0.0005716889863833785,
        0.002053899923339486
      ],
      "type": "VEC2"
    },
    {
      "bufferView": 1,
      "byteOffset": 11912,
      "componentType": 5126,
      "count": 1473,
      "max": [
        3.612449884414673,
        3.425539970397949
      ],
      "min": [
        -1.1967099905014038,
        1.720420002937317
      ],
      "type": "VEC2"
    },
    {
      "bufferView": 0,
      "byteOffset": 48,
      "componentType": 5125,
      "count": 3474,
      "type": "SCALAR"
    }
  ],
  "asset": {
    "extras": {
      "author": "Henry VIII (https://sketchfab.com/henryviii)",
      "license": "CC-BY-4.0 (http://creativecommons.org/licenses/by/4.0/)",
      "source": "https://sketchfab.com/3d-models/desk-near-flover-store-3e2197087576432288781d1d076c569b",
      "title": "Desk near flover store"
    },
    "generator": "Sketchfab-12.67.0",
    "version": "2.0"
  },
  "bufferViews": [
    {
      "buffer": 0,
      "byteLength": 13944,
      "name": "floatBufferViews",
      "target": 34963
    },
    {
      "buffer": 0,
      "byteLength": 23696,
      "byteOffset": 13944,
      "byteStride": 8,
      "name": "floatBufferViews",
      "target": 34962
    },
    {
      "buffer": 0,
      "byteLength": 35544,
      "byteOffset": 37640,
      "byteStride": 12,
      "name": "floatBufferViews",
      "target": 34962
    },
    {
      "buffer": 0,
      "byteLength": 23696,
      "byteOffset": 73184,
      "byteStride": 16,
      "name": "floatBufferViews",
      "target": 34962
    }
  ],
  "buffers": [
    {
      "byteLength": 96880,
      "uri": "scene.bin"
    }
  ],
  "images": [
    {
      "uri": "textures/M_Desk_Flovers_baseColor.jpeg"
    },
    {
      "uri": "textures/M_Desk_Flovers_metallicRoughness.png"
    },
    {
      "uri": "textures/M_Desk_Flovers_normal.jpeg"
    },
    {
      "uri": "textures/M_Desk_Net_baseColor.png"
    },
    {
      "uri": "textures/M_Desk_Net_metallicRoughness.png"
    },
    {
      "uri": "textures/M_Desk_Net_normal.jpeg"
    }
  ],
  "materials": [
    {
      "doubleSided": true,
      "name": "M_Desk_Flovers",
      "normalTexture": {
        "index": 2
      },
      "pbrMetallicRoughness": {
        "baseColorTexture": {
          "index": 0
        },
        "metallicRoughnessTexture": {
          "index": 1
        }
      }
    },
    {
      "alphaMode": "BLEND",
      "doubleSided": true,
      "name": "M_Desk_Net",
      "normalTexture": {
        "index": 5
      },
      "pbrMetallicRoughness": {
        "baseColorTexture": {
          "index": 3
        },
        "metallicRoughnessTexture": {
          "index": 4
        }
      }
    }
  ],
  "meshes": [
    {
      "name": "defaultMaterial",
      "primitives": [
        {
          "attributes": {
            "NORMAL": 1,
            "POSITION": 0,
            "TANGENT": 2,
            "TEXCOORD_0": 3,
            "TEXCOORD_1": 4
          },
          "indices": 5,
          "material": 1,
          "mode": 4
        }
      ]
    },
    {
      "name": "defaultMaterial",
      "primitives": [
        {
          "attributes": {
            "NORMAL": 7,
            "POSITION": 6,
            "TANGENT": 8,
            "TEXCOORD_0": 9,
            "TEXCOORD_1": 10
          },
          "indices": 11,
          "material": 0,
          "mode": 4
        }
      ]
    }
  ],
  "nodes": [
    {
      "children": [
        1
      ],
      "matrix": [
        1.0,
        0.0,
        0.0,
        0.0,
        0.0,
        2.220446049250313e-16,
        -1.0,
        0.0,
        0.0,
        1.0,
        2.220446049250313e-16,
        0.0,
        0.0,
        0.0,
        0.0,
        1.0
      ],
      "name": "Sketchfab_model"
    },
    {
      "children": [
        2,
        4
      ],
      "matrix": [
        1.0,
        0.0,
        0.0,
        0.0,
        0.0,
        -4.371139006309477e-08,
        0.999999999999999,
        0.0,
        0.0,
        -0.999999999999999,
        -4.371139006309477e-08,
        0.0,
        0.0,
        0.0,
        0.0,
        1.0
      ],
      "name": "Collada visual scene group"
    },
    {
      "children": [
        3
      ],
      "name": "o_desk_flowers_final"
    },
    {
      "mesh": 0,
      "name": "defaultMaterial"
    },
    {
      "children": [
        5
      ],
      "name": "o_desk_flowers_final"
    },
    {
      "mesh": 1,
      "name": "defaultMaterial"
    }
  ],
  "samplers": [
    {
      "magFilter": 9729,
      "minFilter": 9987,
      "wrapS": 10497,
      "wrapT": 10497
    }
  ],
  "scene": 0,
  "scenes": [
    {
      "name": "Sketchfab_Scene",
      "nodes": [
        0
      ]
    }
  ],
  "textures": [
    {
      "sampler": 0,
      "source": 0
    },
    {
      "sampler": 0,
      "source": 1
    },
    {
      "sampler": 0,
      "source": 2
    },
    {
      "sampler": 0,
      "source": 3
    },
    {
      "sampler": 0,
      "source": 4
    },
    {
      "sampler": 0,
      "source": 5
    }
  ]
}
