{
  "accessors": [
    {
      "bufferView": 2,
      "componentType": 5126,
      "count": 205,
      "max": [
        0.17067062854766846,
        0.14649449288845062,
        0.03398631513118744
      ],
      "min": [
        -0.12695635855197906,
        -0.1492108404636383,
        -0.033636368811130524
      ],
      "type": "VEC3"
    },
    {
      "bufferView": 2,
      "byteOffset": 2460,
      "componentType": 5126,
      "count": 205,
      "max": [
        0.9996251463890076,
        0.9999484419822693,
        0.999998152256012
      ],
      "min": [
        -0.9993741512298584,
        -0.9997298717498779,
        -0.999998152256012
      ],
      "type": "VEC3"
    },
    {
      "bufferView": 3,
      "componentType": 5126,
      "count": 205,
      "max": [
        0.9996713399887085,
        0.999963641166687,
        1.0,
        1.0
      ],
      "min": [
        -0.9996716380119324,
        -0.9994549751281738,
        -1.0,
        1.0
      ],
      "type": "VEC4"
    },
    {
      "bufferView": 1,
      "componentType": 5126,
      "count": 205,
      "max": [
        0.9938080310821533,
        0.7716599702835083
      ],
      "min": [
        -0.9225693345069885,
        0.005939781665802002
      ],
      "type": "VEC2"
    },
    {
      "bufferView": 0,
      "componentType": 5125,
      "count": 600,
      "type": "SCALAR"
    },
    {
      "bufferView": 2,
      "byteOffset": 4920,
      "componentType": 5126,
      "count": 205,
      "max": [
        0.1187235489487648,
        0.14617511630058289,
        0.11628559976816177
      ],
      "min": [
        -0.0921228677034378,
        -0.1477990597486496,
        -0.16322144865989685
      ],
      "type": "VEC3"
    },
    {
      "bufferView": 2,
      "byteOffset": 7380,
      "componentType": 5126,
      "count": 205,
      "max": [
        0.9968041777610779,
        0.9985582828521729,
        0.9865006804466248
      ],
      "min": [
        -0.9946964979171753,
        -0.9974867701530457,
        -0.9786332845687866
      ],
      "type": "VEC3"
    },
    {
      "bufferView": 3,
      "byteOffset": 3280,
      "componentType": 5126,
      "count": 205,
      "max": [
        0.9917924404144287,
        0.9957013130187988,
        0.9983487725257874,
        1.0
      ],
      "min": [
        -0.9969428777694702,
        -0.9951223134994507,
        -0.9986076354980469,
        1.0
      ],
      "type": "VEC4"
    },
    {
      "bufferView": 1,
      "byteOffset": 1640,
      "componentType": 5126,
      "count": 205,
      "max": [
        0.9938080310821533,
        0.7716599702835083
      ],
      "min": [
        -0.9225693345069885,
        0.005939781665802002
      ],
      "type": "VEC2"
    },
    {
      "bufferView": 0,
      "byteOffset": 2400,
      "componentType": 5125,
      "count": 600,
      "type": "SCALAR"
    },
    {
      "bufferView": 2,
      "byteOffset": 9840,
      "componentType": 5126,
      "count": 373,
      "max": [
        0.1744699329137802,
        0.184749573469162,
        0.03571822866797447
      ],
      "min": [
        -0.1884271502494812,
        -0.16441316902637482,
        -0.03797706216573715
      ],
      "type": "VEC3"
    },
    {
      "bufferView": 2,
      "byteOffset": 14316,
      "componentType": 5126,
      "count": 373,
      "max": [
        0.9130743741989136,
        0.886098325252533,
        0.999963641166687
      ],
      "min": [
        -0.9023114442825317,
        -0.9261465668678284,
        -0.9999985098838806
      ],
      "type": "VEC3"
    },
    {
      "bufferView": 3,
      "byteOffset": 6560,
      "componentType": 5126,
      "count": 373,
      "max": [
        0.9598771333694458,
        0.9599465727806091,
        0.9999785423278809,
        1.0
      ],
      "min": [
        -0.9645500779151917,
        -0.9645116925239563,
        -0.999925434589386,
        1.0
      ],
      "type": "VEC4"
    },
    {
      "bufferView": 1,
      "byteOffset": 3280,
      "componentType": 5126,
      "count": 373,
      "max": [
        0.7656366229057312,
        0.9923664331436157
      ],
      "min": [
        -0.9225693345069885,
        0.057799115777015686
      ],
      "type": "VEC2"
    },
    {
      "bufferView": 0,
      "byteOffset": 4800,
      "componentType": 5125,
      "count": 1056,
      "type": "SCALAR"
    },
    {
      "bufferView": 2,
      "byteOffset": 18792,
      "componentType": 5126,
      "count": 235,
      "max": [
        0.16005173325538635,
        0.1721028834581375,
        0.04226704686880112
      ],
      "min": [
        -0.1159716323018074,
        -0.18122738599777222,
        -0.036504656076431274
      ],
      "type": "VEC3"
    },
    {
      "bufferView": 2,
      "byteOffset": 21612,
      "componentType": 5126,
      "count": 235,
      "max": [
        0.9881618618965149,
        0.9807150363922119,
        0.9998792409896851
      ],
      "min": [
        -0.9751133322715759,
        -0.9999397993087769,
        -0.999678909778595
      ],
      "type": "VEC3"
    },
    {
      "bufferView": 3,
      "byteOffset": 12528,
      "componentType": 5126,
      "count": 235,
      "max": [
        0.9874914288520813,
        0.9949306845664978,
        0.9998925924301147,
        1.0
      ],
      "min": [
        -0.9979842901229858,
        -0.9948545098304749,
        -0.9999228119850159,
        -1.0
      ],
      "type": "VEC4"
    },
    {
      "bufferView": 1,
      "byteOffset": 6264,
      "componentType": 5126,
      "count": 235,
      "max": [
        0.7520448565483093,
        0.9933353662490845
      ],
      "min": [
        -0.9225693345069885,
        0.0773267149925232
      ],
      "type": "VEC2"
    },
    {
      "bufferView": 0,
      "byteOffset": 9024,
      "componentType": 5125,
      "count": 696,
      "type": "SCALAR"
    },
    {
      "bufferView": 2,
      "byteOffset": 24432,
      "componentType": 5126,
      "count": 346,
      "max": [
        0.23878711462020874,
        0.3281342387199402,
        0.05686445161700249
      ],
      "min": [
        -0.24507394433021545,
        -0.3113134205341339,
        -0.01624317467212677
      ],
      "type": "VEC3"
    },
    {
      "bufferView": 2,
      "byteOffset": 28584,
      "componentType": 5126,
      "count": 346,
      "max": [
        0.9824983477592468,
        0.9399336576461792,
        0.9995663166046143
      ],
      "min": [
        -0.9797602295875549,
        -0.9412495493888855,
        -1.0
      ],
      "type": "VEC3"
    },
    {
      "bufferView": 3,
      "byteOffset": 16288,
      "componentType": 5126,
      "count": 346,
      "max": [
        0.99675452709198,
        0.9933238625526428,
        0.9946301579475403,
        1.0
      ],
      "min": [
        -0.9746168851852417,
        -0.9798325300216675,
        -0.9999225735664368,
        -1.0
      ],
      "type": "VEC4"
    },
    {
      "bufferView": 1,
      "byteOffset": 8144,
      "componentType": 5126,
      "count": 346,
      "max": [
        0.9931991696357727,
        0.994469404220581
      ],
      "min": [
        -0.9195877909660339,
        0.011105593293905258
      ],
      "type": "VEC2"
    },
    {
      "bufferView": 0,
      "byteOffset": 11808,
      "componentType": 5125,
      "count": 924,
      "type": "SCALAR"
    },
    {
      "bufferView": 2,
      "byteOffset": 32736,
      "componentType": 5126,
      "count": 297,
      "max": [
        0.02985658496618271,
        0.13923367857933044,
        0.0018394140060991049
      ],
      "min": [
        -0.21764077246189117,
        -0.15919359028339386,
        -0.059835247695446014
      ],
      "type": "VEC3"
    },
    {
      "bufferView": 2,
      "byteOffset": 36300,
      "componentType": 5126,
      "count": 297,
      "max": [
        0.9977853298187256,
        0.9999902248382568,
        0.9999924898147583
      ],
      "min": [
        -0.994510293006897,
        -0.999952495098114,
        -0.9996610879898071
      ],
      "type": "VEC3"
    },
    {
      "bufferView": 3,
      "byteOffset": 21824,
      "componentType": 5126,
      "count": 297,
      "max": [
        0.9988191723823547,
        0.9949430227279663,
        0.9998565912246704,
        1.0
      ],
      "min": [
        -0.9999309778213501,
        -0.9956021308898926,
        -0.99998539686203,
        1.0
      ],
      "type": "VEC4"
    },
    {
      "bufferView": 1,
      "byteOffset": 10912,
      "componentType": 5126,
      "count": 297,
      "max": [
        0.9938569068908691,
        0.9930804371833801
      ],
      "min": [
        0.02302655577659607,
        0.01419675163924694
      ],
      "type": "VEC2"
    },
    {
      "bufferView": 0,
      "byteOffset": 15504,
      "componentType": 5125,
      "count": 828,
      "type": "SCALAR"
    },
    {
      "bufferView": 2,
      "byteOffset": 39864,
      "componentType": 5126,
      "count": 297,
      "max": [
        0.156925231218338,
        0.15302596986293793,
        0.0325416661798954
      ],
      "min": [
        -0.1629011034965515,
        -0.12350723892450333,
        -0.0291633028537035
      ],
      "type": "VEC3"
    },
    {
      "bufferView": 2,
      "byteOffset": 43428,
      "componentType": 5126,
      "count": 297,
      "max": [
        0.9924963116645813,
        0.9997942447662354,
        0.9999275803565979
      ],
      "min": [
        -0.9993552565574646,
        -0.9984831213951111,
        -0.9999058842658997
      ],
      "type": "VEC3"
    },
    {
      "bufferView": 3,
      "byteOffset": 26576,
      "componentType": 5126,
      "count": 297,
      "max": [
        0.9995290040969849,
        0.9928078055381775,
        0.9999796152114868,
        1.0
      ],
      "min": [
        -0.999315083026886,
        -0.999531090259552,
        -0.9998554587364197,
        1.0
      ],
      "type": "VEC4"
    },
    {
      "bufferView": 1,
      "byteOffset": 13288,
      "componentType": 5126,
      "count": 297,
      "max": [
        0.9938569068908691,
        0.9930804371833801
      ],
      "min": [
        0.02302655577659607,
        0.01419675163924694
      ],
      "type": "VEC2"
    },
    {
      "bufferView": 0,
      "byteOffset": 18816,
      "componentType": 5125,
      "count": 828,
      "type": "SCALAR"
    },
    {
      "bufferView": 2,
      "byteOffset": 46992,
      "componentType": 5126,
      "count": 373,
      "max": [
        0.1361653357744217,
        0.14735588431358337,
        0.03896963596343994
      ],
      "min": [
        -0.11757785826921463,
        -0.1454668939113617,
        -0.04127315431833267
      ],
      "type": "VEC3"
    },
    {
      "bufferView": 2,
      "byteOffset": 51468,
      "componentType": 5126,
      "count": 373,
      "max": [
        0.9994825720787048,
        0.9999922513961792,
        0.9995096921920776
      ],
      "min": [
        -0.9999746680259705,
        -0.9999638199806213,
        -0.9993130564689636
      ],
      "type": "VEC3"
    },
    {
      "bufferView": 3,
      "byteOffset": 31328,
      "componentType": 5126,
      "count": 373,
      "max": [
        0.9987565875053406,
        0.9997557997703552,
        0.9999201893806458,
        1.0
      ],
      "min": [
        -0.9973648190498352,
        -0.9999468922615051,
        -0.9999979734420776,
        1.0
      ],
      "type": "VEC4"
    },
    {
      "bufferView": 1,
      "byteOffset": 15664,
      "componentType": 5126,
      "count": 373,
      "max": [
        0.7656366229057312,
        0.9923664331436157
      ],
      "min": [
        -0.9225693345069885,
        0.057799115777015686
      ],
      "type": "VEC2"
    },
    {
      "bufferView": 0,
      "byteOffset": 22128,
      "componentType": 5125,
      "count": 1056,
      "type": "SCALAR"
    }
  ],
  "asset": {
    "extras": {
      "author": "Nekitron (https://sketchfab.com/nikita.nt.1998)",
      "license": "CC-BY-4.0 (http://creativecommons.org/licenses/by/4.0/)",
      "source": "https://sketchfab.com/3d-models/stylized-books-b4ae577825f74da091afe9cc7fe8b9f3",
      "title": "Stylized books"
    },
    "generator": "Sketchfab-12.68.0",
    "version": "2.0"
  },
  "bufferViews": [
    {
      "buffer": 0,
      "byteLength": 26352,
      "name": "floatBufferViews",
      "target": 34963
    },
    {
      "buffer": 0,
      "byteLength": 18648,
      "byteOffset": 26352,
      "byteStride": 8,
      "name": "floatBufferViews",
      "target": 34962
    },
    {
      "buffer": 0,
      "byteLength": 55944,
      "byteOffset": 45000,
      "byteStride": 12,
      "name": "floatBufferViews",
      "target": 34962
    },
    {
      "buffer": 0,
      "byteLength": 37296,
      "byteOffset": 100944,
      "byteStride": 16,
      "name": "floatBufferViews",
      "target": 34962
    }
  ],
  "buffers": [
    {
      "byteLength": 138240,
      "uri": "scene.bin"
    }
  ],
  "images": [
    {
      "uri": "textures/Scene_-_Root_baseColor.png"
    },
    {
      "uri": "textures/Scene_-_Root_metallicRoughness.png"
    },
    {
      "uri": "textures/Scene_-_Root_normal.png"
    }
  ],
  "materials": [
    {
      "doubleSided": true,
      "name": "Scene_-_Root",
      "normalTexture": {
        "index": 2
      },
      "occlusionTexture": {
        "index": 1
      },
      "pbrMetallicRoughness": {
        "baseColorTexture": {
          "index": 0
        },
        "metallicRoughnessTexture": {
          "index": 1
        }
      }
    }
  ],
  "meshes": [
    {
      "name": "2.1__0",
      "primitives": [
        {
          "attributes": {
            "NORMAL": 1,
            "POSITION": 0,
            "TANGENT": 2,
            "TEXCOORD_0": 3
          },
          "indices": 4,
          "material": 0,
          "mode": 4
        }
      ]
    },
    {
      "name": "2.2__0",
      "primitives": [
        {
          "attributes": {
            "NORMAL": 6,
            "POSITION": 5,
            "TANGENT": 7,
            "TEXCOORD_0": 8
          },
          "indices": 9,
          "material": 0,
          "mode": 4
        }
      ]
    },
    {
      "name": "3.1__0",
      "primitives": [
        {
          "attributes": {
            "NORMAL": 11,
            "POSITION": 10,
            "TANGENT": 12,
            "TEXCOORD_0": 13
          },
          "indices": 14,
          "material": 0,
          "mode": 4
        }
      ]
    },
    {
      "name": "4__0",
      "primitives": [
        {
          "attributes": {
            "NORMAL": 16,
            "POSITION": 15,
            "TANGENT": 17,
            "TEXCOORD_0": 18
          },
          "indices": 19,
          "material": 0,
          "mode": 4
        }
      ]
    },
    {
      "name": "5__0",
      "primitives": [
        {
          "attributes": {
            "NORMAL": 21,
            "POSITION": 20,
            "TANGENT": 22,
            "TEXCOORD_0": 23
          },
          "indices": 24,
          "material": 0,
          "mode": 4
        }
      ]
    },
    {
      "name": "1.2__0",
      "primitives": [
        {
          "attributes": {
            "NORMAL": 26,
            "POSITION": 25,
            "TANGENT": 27,
            "TEXCOORD_0": 28
          },
          "indices": 29,
          "material": 0,
          "mode": 4
        }
      ]
    },
    {
      "name": "1.1__0",
      "primitives": [
        {
          "attributes": {
            "NORMAL": 31,
            "POSITION": 30,
            "TANGENT": 32,
            "TEXCOORD_0": 33
          },
          "indices": 34,
          "material": 0,
          "mode": 4
        }
      ]
    },
    {
      "name": "3.2__0",
      "primitives": [
        {
          "attributes": {
            "NORMAL": 36,
            "POSITION": 35,
            "TANGENT": 37,
            "TEXCOORD_0": 38
          },
          "indices": 39,
          "material": 0,
          "mode": 4
        }
      ]
    }
  ],
  "nodes": [
    {
      "children": [
        1
      ],
      "matrix": [
        1.0,
        0.0,
        0.0,
        0.0,
        0.0,
        2.220446049250313e-16,
        -1.0,
        0.0,
        0.0,
        1.0,
        2.220446049250313e-16,
        0.0,
        0.0,
        0.0,
        0.0,
        1.0
      ],
      "name": "Sketchfab_model"
    },
    {
      "children": [
        2
      ],
      "matrix": [
        0.009999999776482582,
        0.0,
        0.0,
        0.0,
        0.0,
        0.0,
        0.009999999776482582,
        0.0,
        0.0,
        -0.009999999776482582,
        0.0,
        0.0,
        0.0,
        0.0,
        0.0,
        1.0
      ],
      "name": "Books.fbx"
    },
    {
      "children": [
        3,
        5,
        7,
        9,
        11,
        13,
        15,
        17
      ],
      "name": "RootNode"
    },
    {
      "children": [
        4
      ],
      "matrix": [
        100.0,
        0.0,
        0.0,
        0.0,
        0.0,
        -1.629206793918314e-05,
        -99.99999999999868,
        0.0,
        0.0,
        99.99999999999868,
        -1.629206793918314e-05,
        0.0,
        30.496614456176758,
        0.8470551371574402,
        0.1277545541524887,
        1.0
      ],
      "name": "2.1"
    },
    {
      "mesh": 0,
      "name": "2.1__0"
    },
    {
      "children": [
        6
      ],
      "matrix": [
        100.0,
        6.285345119373983e-16,
        -8.897770530435844e-18,
        0.0,
        8.89744547477863e-18,
        -2.8306561108275563,
        -99.95992890144649,
        0.0,
        -6.285345165389241e-16,
        99.95992890144649,
        -2.8306561108275563,
        0.0,
        51.87569808959961,
        13.295195579528809,
        1.4237267971038818,
        1.0
      ],
      "name": "2.2"
    },
    {
      "mesh": 1,
      "name": "2.2__0"
    },
    {
      "children": [
        8
      ],
      "matrix": [
        99.978199482188,
        2.086862183925421,
        -0.06807734663951767,
        0.0,
        2.2213788117980693e-07,
        -3.260463216484921,
        -99.946832764295,
        0.0,
        -2.0879724531348396,
        99.92505146074028,
        -3.259752671955752,
        0.0,
        45.90129089355469,
        0.7242026925086975,
        38.27098083496094,
        1.0
      ],
      "name": "3.1"
    },
    {
      "mesh": 2,
      "name": "3.1__0"
    },
    {
      "children": [
        10
      ],
      "matrix": [
        99.97640818809496,
        -2.1721974157624913,
        0.029834096872989872,
        0.0,
        0.006896565432857695,
        -1.0559582262288494,
        -99.9944319976908,
        0.0,
        2.1723913376200663,
        99.97083592973692,
        -1.0555592190014358,
        0.0,
        29.50783920288086,
        20.077774047851563,
        8.626221097074449e-05,
        1.0
      ],
      "name": "4"
    },
    {
      "mesh": 3,
      "name": "4__0"
    },
    {
      "children": [
        12
      ],
      "matrix": [
        100.0,
        0.0,
        0.0,
        0.0,
        0.0,
        -1.629206793918314e-05,
        -99.99999999999868,
        0.0,
        0.0,
        99.99999999999868,
        -1.629206793918314e-05,
        0.0,
        1.3167446851730347,
        -1.1590315103530884,
        34.072269439697266,
        1.0
      ],
      "name": "5"
    },
    {
      "mesh": 4,
      "name": "5__0"
    },
    {
      "children": [
        14
      ],
      "matrix": [
        100.0,
        0.0,
        0.0,
        0.0,
        0.0,
        -1.629206793918314e-05,
        -99.99999999999868,
        0.0,
        0.0,
        99.99999999999868,
        -1.629206793918314e-05,
        0.0,
        41.29713439941406,
        10.086384773254395,
        -0.5201485753059387,
        1.0
      ],
      "name": "1.2"
    },
    {
      "mesh": 5,
      "name": "1.2__0"
    },
    {
      "children": [
        16
      ],
      "matrix": [
        99.98285809192247,
        -1.851072828912606,
        0.04021383538954735,
        0.0,
        -4.4479180495021753e-07,
        -2.1719725442826965,
        -99.97640989386886,
        0.0,
        1.851509592331365,
        99.95927202940678,
        -2.1716002349791097,
        0.0,
        -1.5331166982650757,
        0.07662288099527359,
        -13.293218612670898,
        1.0
      ],
      "name": "1.1"
    },
    {
      "mesh": 6,
      "name": "1.1__0"
    },
    {
      "children": [
        18
      ],
      "matrix": [
        99.99255476206062,
        -1.2202426628776601,
        -2.489900285083946e-07,
        0.0,
        -1.5684573266908086e-07,
        7.552266134691621e-06,
        -99.99999999999972,
        0.0,
        1.2202426628776755,
        99.99255476206035,
        7.549789948768648e-06,
        0.0,
        33.195411682128906,
        13.210405349731445,
        0.06906963884830475,
        1.0
      ],
      "name": "3.2"
    },
    {
      "mesh": 7,
      "name": "3.2__0"
    }
  ],
  "samplers": [
    {
      "magFilter": 9729,
      "minFilter": 9987,
      "wrapS": 10497,
      "wrapT": 10497
    }
  ],
  "scene": 0,
  "scenes": [
    {
      "name": "Sketchfab_Scene",
      "nodes": [
        0
      ]
    }
  ],
  "textures": [
    {
      "sampler": 0,
      "source": 0
    },
    {
      "sampler": 0,
      "source": 1
    },
    {
      "sampler": 0,
      "source": 2
    }
  ]
}
