{
  "accessors": [
    {
      "bufferView": 2,
      "componentType": 5126,
      "count": 482,
      "max": [
        53.125762939453125,
        53.125762939453125,
        5.375051498413086
      ],
      "min": [
        -53.125762939453125,
        -53.125762939453125,
        -0.800000011920929
      ],
      "type": "VEC3"
    },
    {
      "bufferView": 2,
      "byteOffset": 5784,
      "componentType": 5126,
      "count": 482,
      "max": [
        0.956486165523529,
        0.9564863443374634,
        1.0
      ],
      "min": [
        -0.9564861059188843,
        -0.9564863443374634,
        -1.0
      ],
      "type": "VEC3"
    },
    {
      "bufferView": 3,
      "componentType": 5126,
      "count": 482,
      "max": [
        1.0,
        0.30378615856170654,
        0.9564861059188843,
        1.0
      ],
      "min": [
        -0.335897296667099,
        -0.9971073865890503,
        -0.9564860463142395,
        1.0
      ],
      "type": "VEC4"
    },
    {
      "bufferView": 1,
      "componentType": 5126,
      "count": 482,
      "max": [
        0.49477091431617737,
        0.997999906539917
      ],
      "min": [
        0.0020000000949949026,
        0.0020000000949949026
      ],
      "type": "VEC2"
    },
    {
      "bufferView": 0,
      "componentType": 5125,
      "count": 1920,
      "type": "SCALAR"
    },
    {
      "bufferView": 2,
      "byteOffset": 11568,
      "componentType": 5126,
      "count": 8520,
      "max": [
        40.89263916015625,
        40.652374267578125,
        24.678916931152344
      ],
      "min": [
        -47.7126350402832,
        -40.745452880859375,
        -0.8961677551269531
      ],
      "type": "VEC3"
    },
    {
      "bufferView": 2,
      "byteOffset": 113808,
      "componentType": 5126,
      "count": 8520,
      "max": [
        0.9998559951782227,
        0.999702513217926,
        0.9999630451202393
      ],
      "min": [
        -0.9999279379844666,
        -0.9997951984405518,
        -0.9999933242797852
      ],
      "type": "VEC3"
    },
    {
      "bufferView": 3,
      "byteOffset": 7712,
      "componentType": 5126,
      "count": 8520,
      "max": [
        0.9999761581420898,
        0.9994331002235413,
        0.9999939203262329,
        1.0
      ],
      "min": [
        -0.999686598777771,
        -0.9997162222862244,
        -0.9983087182044983,
        -1.0
      ],
      "type": "VEC4"
    },
    {
      "bufferView": 1,
      "byteOffset": 3856,
      "componentType": 5126,
      "count": 8520,
      "max": [
        0.9513900279998779,
        0.9980400204658508
      ],
      "min": [
        0.0019499999471008778,
        0.0019499999471008778
      ],
      "type": "VEC2"
    },
    {
      "bufferView": 0,
      "byteOffset": 7680,
      "componentType": 5125,
      "count": 49080,
      "type": "SCALAR"
    }
  ],
  "asset": {
    "extras": {
      "author": "andree (https://sketchfab.com/maestronoov)",
      "license": "CC-BY-4.0 (http://creativecommons.org/licenses/by/4.0/)",
      "source": "https://sketchfab.com/3d-models/pastel-de-canela-70e86f64ebdc453d8601c1bf4814941b",
      "title": "Pastel De Canela"
    },
    "generator": "Sketchfab-12.65.0",
    "version": "2.0"
  },
  "bufferViews": [
    {
      "buffer": 0,
      "byteLength": 204000,
      "name": "floatBufferViews",
      "target": 34963
    },
    {
      "buffer": 0,
      "byteLength": 72016,
      "byteOffset": 204000,
      "byteStride": 8,
      "name": "floatBufferViews",
      "target": 34962
    },
    {
      "buffer": 0,
      "byteLength": 216048,
      "byteOffset": 276016,
      "byteStride": 12,
      "name": "floatBufferViews",
      "target": 34962
    },
    {
      "buffer": 0,
      "byteLength": 144032,
      "byteOffset": 492064,
      "byteStride": 16,
      "name": "floatBufferViews",
      "target": 34962
    }
  ],
  "buffers": [
    {
      "byteLength": 636096,
      "uri": "scene.bin"
    }
  ],
  "images": [
    {
      "uri": "textures/Material_26_baseColor.png"
    },
    {
      "uri": "textures/Material_26_metallicRoughness.png"
    },
    {
      "uri": "textures/Material_26_normal.png"
    },
    {
      "uri": "textures/Material_25_baseColor.png"
    },
    {
      "uri": "textures/Material_25_metallicRoughness.png"
    },
    {
      "uri": "textures/Material_25_normal.png"
    }
  ],
  "materials": [
    {
      "doubleSided": true,
      "name": "Material_26",
      "normalTexture": {
        "index": 2,
        "scale": 0.25171493902439024
      },
      "pbrMetallicRoughness": {
        "baseColorTexture": {
          "index": 0
        },
        "metallicRoughnessTexture": {
          "index": 1
        }
      }
    },
    {
      "doubleSided": true,
      "name": "Material_25",
      "normalTexture": {
        "index": 5
      },
      "pbrMetallicRoughness": {
        "baseColorTexture": {
          "index": 3
        },
        "metallicFactor": 0.0,
        "metallicRoughnessTexture": {
          "index": 4
        }
      }
    }
  ],
  "meshes": [
    {
      "name": "Cylinder001_Material #26_0",
      "primitives": [
        {
          "attributes": {
            "NORMAL": 1,
            "POSITION": 0,
            "TANGENT": 2,
            "TEXCOORD_0": 3
          },
          "indices": 4,
          "material": 0,
          "mode": 4
        }
      ]
    },
    {
      "name": "Cylinder001_Material #25_0",
      "primitives": [
        {
          "attributes": {
            "NORMAL": 6,
            "POSITION": 5,
            "TANGENT": 7,
            "TEXCOORD_0": 8
          },
          "indices": 9,
          "material": 1,
          "mode": 4
        }
      ]
    }
  ],
  "nodes": [
    {
      "children": [
        1
      ],
      "matrix": [
        1.0,
        0.0,
        0.0,
        0.0,
        0.0,
        2.220446049250313e-16,
        -1.0,
        0.0,
        0.0,
        1.0,
        2.220446049250313e-16,
        0.0,
        0.0,
        0.0,
        0.0,
        1.0
      ],
      "name": "Sketchfab_model"
    },
    {
      "children": [
        2
      ],
      "matrix": [
        1.0,
        0.0,
        0.0,
        0.0,
        0.0,
        0.0,
        1.0,
        0.0,
        0.0,
        -1.0,
        0.0,
        0.0,
        0.0,
        0.0,
        0.0,
        1.0
      ],
      "name": "pastel de canela.FBX"
    },
    {
      "children": [
        3
      ],
      "name": "RootNode"
    },
    {
      "children": [
        4,
        5
      ],
      "matrix": [
        0.8983182907104492,
        0.0,
        0.0,
        0.0,
        0.0,
        1.9946672995773112e-16,
        -0.8983182907104492,
        0.0,
        0.0,
        1.0,
        2.220446049250313e-16,
        0.0,
        0.0,
        0.0,
        0.0,
        1.0
      ],
      "name": "Cylinder001"
    },
    {
      "mesh": 0,
      "name": "Cylinder001_Material #26_0"
    },
    {
      "mesh": 1,
      "name": "Cylinder001_Material #25_0"
    }
  ],
  "samplers": [
    {
      "magFilter": 9729,
      "minFilter": 9987,
      "wrapS": 10497,
      "wrapT": 10497
    }
  ],
  "scene": 0,
  "scenes": [
    {
      "name": "Sketchfab_Scene",
      "nodes": [
        0
      ]
    }
  ],
  "textures": [
    {
      "sampler": 0,
      "source": 0
    },
    {
      "sampler": 0,
      "source": 1
    },
    {
      "sampler": 0,
      "source": 2
    },
    {
      "sampler": 0,
      "source": 3
    },
    {
      "sampler": 0,
      "source": 4
    },
    {
      "sampler": 0,
      "source": 5
    }
  ]
}
