{
  "accessors": [
    {
      "bufferView": 2,
      "componentType": 5126,
      "count": 6058,
      "max": [
        0.7513247132301331,
        0.5825824737548828,
        0.4403954744338989
      ],
      "min": [
        -0.7513247132301331,
        -0.6000819802284241,
        -0.19417035579681396
      ],
      "type": "VEC3"
    },
    {
      "bufferView": 2,
      "byteOffset": 72696,
      "componentType": 5126,
      "count": 6058,
      "max": [
        1.0,
        1.0,
        1.0
      ],
      "min": [
        -1.0,
        -1.0,
        -1.0
      ],
      "type": "VEC3"
    },
    {
      "bufferView": 1,
      "componentType": 5126,
      "count": 6058,
      "max": [
        0.997506320476532,
        0.9983178377151489
      ],
      "min": [
        0.002078303135931492,
        -0.00026553869247436523
      ],
      "type": "VEC2"
    },
    {
      "bufferView": 0,
      "componentType": 5125,
      "count": 10722,
      "type": "SCALAR"
    }
  ],
  "asset": {
    "extras": {
      "author": "AEN (https://sketchfab.com/aenikl)",
      "license": "CC-BY-4.0 (http://creativecommons.org/licenses/by/4.0/)",
      "source": "https://sketchfab.com/3d-models/piano-6fdfd05ed18c4c8796f54b44e572e873",
      "title": "Piano"
    },
    "generator": "Sketchfab-12.68.0",
    "version": "2.0"
  },
  "bufferViews": [
    {
      "buffer": 0,
      "byteLength": 42888,
      "name": "floatBufferViews",
      "target": 34963
    },
    {
      "buffer": 0,
      "byteLength": 48464,
      "byteOffset": 42888,
      "byteStride": 8,
      "name": "floatBufferViews",
      "target": 34962
    },
    {
      "buffer": 0,
      "byteLength": 145392,
      "byteOffset": 91352,
      "byteStride": 12,
      "name": "floatBufferViews",
      "target": 34962
    }
  ],
  "buffers": [
    {
      "byteLength": 236744,
      "uri": "scene.bin"
    }
  ],
  "images": [
    {
      "uri": "textures/Piano_New_mat_baseColor.jpeg"
    }
  ],
  "materials": [
    {
      "doubleSided": true,
      "name": "Piano_New_mat",
      "pbrMetallicRoughness": {
        "baseColorTexture": {
          "index": 0
        },
        "metallicFactor": 0.0,
        "roughnessFactor": 0.6
      }
    }
  ],
  "meshes": [
    {
      "name": "Object_0",
      "primitives": [
        {
          "attributes": {
            "NORMAL": 1,
            "POSITION": 0,
            "TEXCOORD_0": 2
          },
          "indices": 3,
          "material": 0,
          "mode": 4
        }
      ]
    }
  ],
  "nodes": [
    {
      "children": [
        1
      ],
      "matrix": [
        1.8396673202514648,
        -5.211353186484205e-16,
        -5.211353186484207e-16,
        0.0,
        -5.211353186484206e-16,
        1.1264713967748732e-16,
        -1.8396673202514648,
        0.0,
        5.211353186484206e-16,
        1.8396673202514648,
        1.1264713967748732e-16,
        0.0,
        7.862572744976202e-17,
        -7.45931094670027e-17,
        1.387778780781444e-17,
        1.0
      ],
      "name": "Sketchfab_model"
    },
    {
      "children": [
        2
      ],
      "name": "root"
    },
    {
      "children": [
        3
      ],
      "matrix": [
        1.0,
        0.0,
        0.0,
        0.0,
        0.0,
        2.220446049250313e-16,
        1.0,
        0.0,
        0.0,
        -1.0,
        2.220446049250313e-16,
        0.0,
        0.0,
        0.0,
        0.0,
        1.0
      ],
      "name": "GLTF_SceneRootNode"
    },
    {
      "children": [
        4
      ],
      "name": "Piano_2"
    },
    {
      "mesh": 0,
      "name": "Object_4"
    }
  ],
  "samplers": [
    {
      "magFilter": 9729,
      "minFilter": 9987,
      "wrapS": 10497,
      "wrapT": 10497
    }
  ],
  "scene": 0,
  "scenes": [
    {
      "name": "Sketchfab_Scene",
      "nodes": [
        0
      ]
    }
  ],
  "textures": [
    {
      "sampler": 0,
      "source": 0
    }
  ]
}
