{
  "accessors": [
    {
      "bufferView": 3,
      "componentType": 5126,
      "count": 7435,
      "max": [
        1.7617583274841309,
        1.1987888813018799,
        3.871793508529663
      ],
      "min": [
        -1.7617583274841309,
        -5.456940174102783,
        -3.871793508529663
      ],
      "type": "VEC3"
    },
    {
      "bufferView": 3,
      "byteOffset": 89220,
      "componentType": 5126,
      "count": 7435,
      "max": [
        1.0,
        1.0,
        1.0
      ],
      "min": [
        -1.0,
        -1.0,
        -1.0
      ],
      "type": "VEC3"
    },
    {
      "bufferView": 4,
      "componentType": 5126,
      "count": 7435,
      "max": [
        1.0,
        1.0,
        0.7711758017539978,
        1.0
      ],
      "min": [
        -0.769227921962738,
        -1.0,
        -1.0,
        -1.0
      ],
      "type": "VEC4"
    },
    {
      "bufferView": 2,
      "componentType": 5126,
      "count": 7435,
      "max": [
        0.9982500672340393,
        0.9982509016990662
      ],
      "min": [
        0.0017499570967629552,
        0.0017491118051111698
      ],
      "type": "VEC2"
    },
    {
      "bufferView": 2,
      "byteOffset": 59480,
      "componentType": 5126,
      "count": 7435,
      "max": [
        4.435896873474121,
        4.3219780921936035
      ],
      "min": [
        -3.435896873474121,
        -3.6357154846191406
      ],
      "type": "VEC2"
    },
    {
      "bufferView": 2,
      "byteOffset": 118960,
      "componentType": 5126,
      "count": 7435,
      "max": [
        0.9982675909996033,
        0.998267650604248
      ],
      "min": [
        0.0017324044601991773,
        0.0017324085347354412
      ],
      "type": "VEC2"
    },
    {
      "bufferView": 2,
      "byteOffset": 178440,
      "componentType": 5126,
      "count": 7435,
      "max": [
        1.3959600925445557,
        1.997702717781067
      ],
      "min": [
        -0.4869144558906555,
        -0.9980487823486328
      ],
      "type": "VEC2"
    },
    {
      "bufferView": 1,
      "componentType": 5125,
      "count": 20184,
      "type": "SCALAR"
    },
    {
      "bufferView": 5,
      "componentType": 5126,
      "count": 10,
      "max": [
        100.0,
        0.0,
        0.0,
        0.0,
        0.0,
        100.0,
        0.0,
        0.0,
        0.0,
        0.0,
        100.0,
        0.0,
        0.0,
        0.0,
        1.7707322835922241,
        1.0
      ],
      "min": [
        1.0,
        0.0,
        0.0,
        0.0,
        0.0,
        1.0,
        0.0,
        0.0,
        0.0,
        0.0,
        1.0,
        0.0,
        -1.67950439453125,
        -0.08742941170930862,
        -1.7707322835922241,
        1.0
      ],
      "type": "MAT4"
    },
    {
      "bufferView": 0,
      "componentType": 5123,
      "count": 7435,
      "type": "VEC4"
    },
    {
      "bufferView": 4,
      "byteOffset": 118960,
      "componentType": 5126,
      "count": 7435,
      "max": [
        1.0,
        0.0,
        0.0,
        0.0
      ],
      "min": [
        1.0,
        0.0,
        0.0,
        0.0
      ],
      "type": "VEC4"
    },
    {
      "bufferView": 6,
      "componentType": 5126,
      "count": 121,
      "max": [
        3.75
      ],
      "min": [
        0.0
      ],
      "type": "SCALAR"
    },
    {
      "bufferView": 8,
      "componentType": 5126,
      "count": 121,
      "max": [
        1.4685523828216223e-39,
        6.332509799237778e-40,
        0.16231217980384827,
        1.0
      ],
      "min": [
        -2.9153299888061014e-39,
        -1.4324367175005788e-39,
        -0.22942472994327545,
        0.9733263850212097
      ],
      "type": "VEC4"
    },
    {
      "bufferView": 6,
      "byteOffset": 484,
      "componentType": 5126,
      "count": 117,
      "max": [
        3.75
      ],
      "min": [
        0.0
      ],
      "type": "SCALAR"
    },
    {
      "bufferView": 7,
      "componentType": 5126,
      "count": 117,
      "max": [
        2.300802707672119,
        -0.08742916584014893,
        1.7707322835922241
      ],
      "min": [
        0.5300021171569824,
        -0.08742916584014893,
        1.7707322835922241
      ],
      "type": "VEC3"
    },
    {
      "bufferView": 6,
      "byteOffset": 952,
      "componentType": 5126,
      "count": 121,
      "max": [
        3.75
      ],
      "min": [
        0.0
      ],
      "type": "SCALAR"
    },
    {
      "bufferView": 8,
      "byteOffset": 1936,
      "componentType": 5126,
      "count": 121,
      "max": [
        1.4685523828216223e-39,
        6.332509799237778e-40,
        0.16231217980384827,
        1.0
      ],
      "min": [
        -2.9153299888061014e-39,
        -1.4324367175005788e-39,
        -0.22942472994327545,
        0.9733263850212097
      ],
      "type": "VEC4"
    },
    {
      "bufferView": 6,
      "byteOffset": 1436,
      "componentType": 5126,
      "count": 117,
      "max": [
        3.75
      ],
      "min": [
        0.0
      ],
      "type": "SCALAR"
    },
    {
      "bufferView": 7,
      "byteOffset": 1404,
      "componentType": 5126,
      "count": 117,
      "max": [
        2.300802707672119,
        -0.08742916584014893,
        -1.7707322835922241
      ],
      "min": [
        0.5300021171569824,
        -0.08742916584014893,
        -1.7707322835922241
      ],
      "type": "VEC3"
    }
  ],
  "animations": [
    {
      "channels": [
        {
          "sampler": 0,
          "target": {
            "node": 10,
            "path": "rotation"
          }
        },
        {
          "sampler": 1,
          "target": {
            "node": 8,
            "path": "translation"
          }
        },
        {
          "sampler": 2,
          "target": {
            "node": 14,
            "path": "rotation"
          }
        },
        {
          "sampler": 3,
          "target": {
            "node": 12,
            "path": "translation"
          }
        }
      ],
      "name": "drawer_skeleton|drawer_skeletonAction",
      "samplers": [
        {
          "input": 11,
          "interpolation": "LINEAR",
          "output": 12
        },
        {
          "input": 13,
          "interpolation": "LINEAR",
          "output": 14
        },
        {
          "input": 15,
          "interpolation": "LINEAR",
          "output": 16
        },
        {
          "input": 17,
          "interpolation": "LINEAR",
          "output": 18
        }
      ]
    }
  ],
  "asset": {
    "extras": {
      "author": "Blender3D (https://sketchfab.com/Blender3D)",
      "license": "CC-BY-4.0 (http://creativecommons.org/licenses/by/4.0/)",
      "source": "https://sketchfab.com/3d-models/basic-drawer-a643a41c1d2b4e4ca9be07d58ce85060",
      "title": "Basic Drawer"
    },
    "generator": "Sketchfab-12.66.0",
    "version": "2.0"
  },
  "bufferViews": [
    {
      "buffer": 0,
      "byteLength": 59480,
      "byteStride": 8,
      "name": "shortBufferViews",
      "target": 34962
    },
    {
      "buffer": 0,
      "byteLength": 80736,
      "byteOffset": 59480,
      "name": "floatBufferViews",
      "target": 34963
    },
    {
      "buffer": 0,
      "byteLength": 237920,
      "byteOffset": 140216,
      "byteStride": 8,
      "name": "floatBufferViews",
      "target": 34962
    },
    {
      "buffer": 0,
      "byteLength": 178440,
      "byteOffset": 378136,
      "byteStride": 12,
      "name": "floatBufferViews",
      "target": 34962
    },
    {
      "buffer": 0,
      "byteLength": 237920,
      "byteOffset": 556576,
      "byteStride": 16,
      "name": "floatBufferViews",
      "target": 34962
    },
    {
      "buffer": 0,
      "byteLength": 640,
      "byteOffset": 794496,
      "name": "floatBufferViews"
    },
    {
      "buffer": 0,
      "byteLength": 1904,
      "byteOffset": 795136,
      "name": "floatBufferViews"
    },
    {
      "buffer": 0,
      "byteLength": 2808,
      "byteOffset": 797040,
      "byteStride": 12,
      "name": "floatBufferViews"
    },
    {
      "buffer": 0,
      "byteLength": 3872,
      "byteOffset": 799848,
      "byteStride": 16,
      "name": "floatBufferViews"
    }
  ],
  "buffers": [
    {
      "byteLength": 803720,
      "uri": "scene.bin"
    }
  ],
  "images": [
    {
      "uri": "textures/Scene_-_Root_baseColor.jpeg"
    },
    {
      "uri": "textures/Scene_-_Root_metallicRoughness.png"
    },
    {
      "uri": "textures/Scene_-_Root_normal.jpeg"
    }
  ],
  "materials": [
    {
      "doubleSided": true,
      "name": "Scene_-_Root",
      "normalTexture": {
        "index": 2,
        "scale": 0.663030312278054
      },
      "occlusionTexture": {
        "index": 1
      },
      "pbrMetallicRoughness": {
        "baseColorTexture": {
          "index": 0
        },
        "metallicFactor": 0.572121221368963,
        "metallicRoughnessTexture": {
          "index": 1
        },
        "roughnessFactor": 0.6145454637932055
      }
    }
  ],
  "meshes": [
    {
      "name": "drawer__0",
      "primitives": [
        {
          "attributes": {
            "JOINTS_0": 9,
            "NORMAL": 1,
            "POSITION": 0,
            "TANGENT": 2,
            "TEXCOORD_0": 3,
            "TEXCOORD_1": 4,
            "TEXCOORD_2": 5,
            "TEXCOORD_3": 6,
            "WEIGHTS_0": 10
          },
          "indices": 7,
          "material": 0,
          "mode": 4
        }
      ]
    }
  ],
  "nodes": [
    {
      "children": [
        1
      ],
      "matrix": [
        1.0,
        0.0,
        0.0,
        0.0,
        0.0,
        2.220446049250313e-16,
        -1.0,
        0.0,
        0.0,
        1.0,
        2.220446049250313e-16,
        0.0,
        0.0,
        0.0,
        0.0,
        1.0
      ],
      "name": "Sketchfab_model"
    },
    {
      "children": [
        2
      ],
      "matrix": [
        1.0,
        0.0,
        0.0,
        0.0,
        0.0,
        0.0,
        1.0,
        0.0,
        0.0,
        -1.0,
        0.0,
        0.0,
        0.0,
        0.0,
        0.0,
        1.0
      ],
      "name": "Drawer.fbx"
    },
    {
      "children": [
        3
      ],
      "name": "Object_2"
    },
    {
      "children": [
        4,
        18
      ],
      "name": "RootNode"
    },
    {
      "children": [
        5
      ],
      "name": "drawer_skeleton",
      "rotation": [
        -0.7071068286895752,
        0.0,
        0.0,
        0.7071067094802856
      ],
      "scale": [
        100.0,
        100.0,
        100.0
      ],
      "translation": [
        53.000213623046875,
        2.384185791015625e-05,
        177.07322692871094
      ]
    },
    {
      "children": [
        6,
        17,
        16
      ],
      "name": "Object_5"
    },
    {
      "children": [
        7
      ],
      "name": "_rootJoint"
    },
    {
      "children": [
        8,
        12
      ],
      "name": "Bone.002_00",
      "rotation": [
        0.7071068286895752,
        0.0,
        0.0,
        0.7071067094802856
      ],
      "translation": [
        -0.5300021171569824,
        1.7707322835922241,
        0.08742916584014893
      ]
    },
    {
      "children": [
        9
      ],
      "name": "Bone_01",
      "translation": [
        0.5300021171569824,
        -0.08742916584014893,
        1.7707322835922241
      ]
    },
    {
      "children": [
        10
      ],
      "name": "Bone.003_02",
      "translation": [
        1.0441229343414307,
        0.005743265151977539,
        -1.1920928955078125e-07
      ]
    },
    {
      "children": [
        11
      ],
      "name": "Bone.004_03",
      "translation": [
        0.10537934303283691,
        -0.00019824504852294922,
        -2.384185791015625e-07
      ]
    },
    {
      "name": "Bone.004_end_08",
      "translation": [
        0.0,
        0.3027934730052948,
        0.0
      ]
    },
    {
      "children": [
        13
      ],
      "name": "Bone.001_04",
      "translation": [
        0.5300021171569824,
        -0.08742916584014893,
        -1.7707322835922241
      ]
    },
    {
      "children": [
        14
      ],
      "name": "Bone.005_05",
      "translation": [
        1.0441229343414307,
        0.005743265151977539,
        2.384185791015625e-07
      ]
    },
    {
      "children": [
        15
      ],
      "name": "Bone.006_06",
      "translation": [
        0.10537934303283691,
        -0.00019812583923339844,
        0.0
      ]
    },
    {
      "name": "Bone.006_end_07",
      "translation": [
        0.0,
        0.3027935028076172,
        0.0
      ]
    },
    {
      "matrix": [
        100.0,
        0.0,
        0.0,
        0.0,
        0.0,
        6.123233995736766e-15,
        -100.0,
        0.0,
        0.0,
        100.0,
        6.123233995736766e-15,
        0.0,
        0.0,
        -212.907564163208,
        0.0,
        1.0
      ],
      "name": "Object_16"
    },
    {
      "mesh": 0,
      "name": "Object_17",
      "skin": 0
    },
    {
      "name": "drawer",
      "rotation": [
        -0.7071068286895752,
        0.0,
        0.0,
        0.7071067094802856
      ],
      "scale": [
        100.0,
        100.0,
        100.0
      ],
      "translation": [
        0.0,
        -212.90757751464844,
        0.0
      ]
    }
  ],
  "samplers": [
    {
      "magFilter": 9729,
      "minFilter": 9987,
      "wrapS": 10497,
      "wrapT": 10497
    }
  ],
  "scene": 0,
  "scenes": [
    {
      "name": "Sketchfab_Scene",
      "nodes": [
        0
      ]
    }
  ],
  "skins": [
    {
      "inverseBindMatrices": 8,
      "joints": [
        6,
        7,
        8,
        9,
        10,
        11,
        12,
        13,
        14,
        15
      ],
      "skeleton": 6
    }
  ],
  "textures": [
    {
      "sampler": 0,
      "source": 0
    },
    {
      "sampler": 0,
      "source": 1
    },
    {
      "sampler": 0,
      "source": 2
    }
  ]
}
